# xmcd CD database file
#
# Track frame offsets:
#	150
#	21630
#	40737
#	53864
#	70647
#	89660
#	110695
#	128968
#	149713
#	167815
#
# Disc length: 2470 seconds
#
# Revision: 1
# Processed by: cddbd v1.5.2PL0 Copyright (c) Steve Scherf et al.
# Submitted via: CDex 1.70beta2
#
DISCID=9809a40a
DTITLE=Steve Greenbaum - Taking a turn
DYEAR=2003
DGENRE=Jazz
TTITLE0=liquid blue
TTITLE1=outbound
TTITLE2=emily's song
TTITLE3=taking a turn
TTITLE4=november unfolding
TTITLE5=tryst
TTITLE6=a flower from budapest(virag)
TTITLE7=the road calls
TTITLE8=missouri stars
TTITLE9=whisper/listen
EXTD=YEAR: 2003
EXTT0=
EXTT1=
EXTT2=
EXTT3=
EXTT4=
EXTT5=
EXTT6=
EXTT7=
EXTT8=
EXTT9=
PLAYORDER=
